<svg xmlns="http://www.w3.org/2000/svg" version="1.1" xmlns:xlink="http://www.w3.org/1999/xlink" xmlns:svgjs="http://svgjs.dev/svgjs" width="1000" height="1000" viewBox="0 0 1000 1000"><rect width="1000" height="1000" fill="#ffffff"></rect><g transform="matrix(0.7,0,0,0.7,149.57575757575756,357.76126303578235)"><svg viewBox="0 0 396 161" data-background-color="#ed2647" preserveAspectRatio="xMidYMid meet" height="406" width="1000" xmlns="http://www.w3.org/2000/svg" xmlns:xlink="http://www.w3.org/1999/xlink"><g id="tight-bounds" transform="matrix(1,0,0,1,0.2400000000000091,0.07859483194592087)"><svg viewBox="0 0 395.52 160.84281033610816" height="160.84281033610816" width="395.52"><g><svg viewBox="0 0 395.52 160.84281033610816" height="160.84281033610816" width="395.52"><g><svg viewBox="0 0 610.915753801281 248.43599999999995" height="160.84281033610816" width="395.52"><g><rect width="5.175576283359811" height="248.43599999999995" x="220.73019297475838" y="0" fill="#000000" opacity="1" stroke-width="0" stroke="transparent" fill-opacity="1" class="rect-r$-0" data-fill-palette-color="primary" rx="1%" id="r$-0" data-palette-color="#8d021f"></rect></g><g transform="matrix(1,0,0,1,239.45439827214912,0.6179999999999808)"><svg viewBox="0 0 371.46135552913194 247.2" height="247.2" width="371.46135552913194"><g id="textblocktransform"><svg viewBox="0 0 371.46135552913194 247.2" height="247.2" width="371.46135552913194" id="textblock"><g><svg viewBox="0 0 371.46135552913194 247.2" height="247.2" width="371.46135552913194"><g transform="matrix(1,0,0,1,0,0)"><svg width="371.46135552913194" viewBox="-3.0500000000000007 -42.35 260.75 173.20000000000002" height="247.2" data-palette-color="#8d021f"><svg></svg><svg></svg><svg></svg><svg></svg><g class="wordmark-text-0" data-fill-palette-color="primary" id="text-0"><path d="M27.45-7.8l-1.4 7.8h-25.1l6.35-36h25.1l-1.4 7.8h-16.1l-1.15 6.75h13.3l-1.4 7.8h-13.3l-1 5.85zM41.25-7.7v0c0 0.867 0.443 1.3 1.33 1.3 0.88 0 1.62-0.167 2.22-0.5v0l-0.25 5.65c-1.6 1.3-3.4 1.95-5.4 1.95v0c-3.033 0-5-0.7-5.9-2.1v0c-0.567-0.9-0.85-1.883-0.85-2.95 0-1.067 0.067-2 0.2-2.8v0l5.45-30.8h8.5l-5.25 29.65c-0.033 0.2-0.05 0.4-0.05 0.6zM64.9-16.75l-1.1 6.3h-14.95l1.1-6.3zM81-8.75h1.15l9.5-27.25h9.75l-13.65 36h-16l-0.4-36h9.8zM110.45-6.4v0c0.767 0 1.45-0.167 2.05-0.5v0l-0.25 5.65c-1.567 1.3-3.35 1.95-5.35 1.95v0c-3.033 0-5-0.7-5.9-2.1v0c-0.6-0.933-0.9-1.927-0.9-2.98 0-1.047 0.067-1.97 0.2-2.77v0l3-16.9h8.5l-2.8 15.75c-0.033 0.2-0.05 0.383-0.05 0.55v0c0 0.9 0.5 1.35 1.5 1.35zM104.3-32.2v0c0-2.133 0.477-3.693 1.43-4.68 0.947-0.98 2.42-1.47 4.42-1.47v0c2.8 0 4.2 1.233 4.2 3.7v0c0 2.1-0.473 3.633-1.42 4.6-0.953 0.967-2.447 1.45-4.48 1.45v0c-2.767 0-4.15-1.2-4.15-3.6zM139-7.7v0c0 0.867 0.443 1.3 1.33 1.3 0.88 0 1.62-0.167 2.22-0.5v0l-0.25 5.65c-1.6 1.3-3.4 1.95-5.4 1.95v0c-3.667 0-5.7-1.333-6.1-4v0c-1.667 2.667-4.117 4-7.35 4v0c-5.467 0-8.2-2.35-8.2-7.05v0c0-0.8 0.083-1.683 0.25-2.65v0l1.05-5.85c0.533-3 1.76-5.393 3.68-7.18 1.913-1.78 4.413-2.67 7.5-2.67 3.08 0 5.17 0.717 6.27 2.15v0l0.25-1.5h7.6l-2.8 15.75c-0.033 0.2-0.05 0.4-0.05 0.6zM124.85-13.85l-0.65 3.75c-0.067 0.3-0.1 0.717-0.1 1.25 0 0.533 0.25 1.057 0.75 1.57 0.5 0.52 1.343 0.78 2.53 0.78 1.18 0 2.203-0.467 3.07-1.4v0l1.5-8.4c-0.367-0.833-1.233-1.25-2.6-1.25v0c-2.567 0-4.067 1.233-4.5 3.7z" fill="#000000" fill-rule="nonzero" stroke="none" stroke-width="1" stroke-linecap="butt" stroke-linejoin="miter" stroke-miterlimit="10" stroke-dasharray="" stroke-dashoffset="0" font-family="none" font-weight="none" font-size="none" text-anchor="none" style="mix-blend-mode: normal" data-fill-palette-color="primary" opacity="1"></path><path transform="translate(0,42.05)" d="M13.5 0.7v0c-4.733 0-8-1.1-9.8-3.3v0c-1.233-1.533-1.85-3.633-1.85-6.3v0c0-1.233 0.133-2.583 0.4-4.05v0l1.75-10c1.567-8.933 7.033-13.4 16.4-13.4v0c3.867 0 6.8 0.823 8.8 2.47 2 1.653 3 3.913 3 6.78v0c0 1.167-0.157 2.35-0.47 3.55-0.32 1.2-0.63 2.1-0.93 2.7v0l-0.5 0.9h-8.85c0.867-1.2 1.3-2.583 1.3-4.15v0c0-3-1.25-4.5-3.75-4.5v0c-3.367 0-5.383 1.95-6.05 5.85v0l-1.7 9.6c-0.167 0.9-0.25 1.783-0.25 2.65v0c0 2.3 1.36 3.45 4.08 3.45 2.713 0 4.453-1.367 5.22-4.1v0h-4.1l1-5.55h13.25l-0.8 4.3-0.25 1.45c-1.4 7.767-6.7 11.65-15.9 11.65zM42.85-7.7v0c0 0.867 0.443 1.3 1.33 1.3 0.88 0 1.62-0.167 2.22-0.5v0l-0.25 5.65c-1.6 1.3-3.4 1.95-5.4 1.95v0c-3.033 0-5-0.7-5.9-2.1v0c-0.567-0.9-0.85-1.883-0.85-2.95 0-1.067 0.067-2 0.2-2.8v0l5.45-30.8h8.5l-5.25 29.65c-0.033 0.2-0.05 0.4-0.05 0.6zM64.45-24.75v0c3.6 0 6.317 0.783 8.15 2.35v0c1.433 1.233 2.15 2.95 2.15 5.15v0c0 0.733-0.083 1.533-0.25 2.4v0l-1.05 5.85c-0.633 3.533-2.107 6.033-4.42 7.5-2.32 1.467-5.413 2.2-9.28 2.2-3.867 0-6.7-0.733-8.5-2.2v0c-1.333-1.1-2-2.75-2-4.95v0c0-0.767 0.083-1.617 0.25-2.55v0l1.05-5.85c1.167-6.6 5.8-9.9 13.9-9.9zM65.15-10.1l0.65-3.75c0.067-0.333 0.1-0.76 0.1-1.28 0-0.513-0.217-1.087-0.65-1.72-0.433-0.633-1.19-0.95-2.27-0.95-1.087 0-1.997 0.357-2.73 1.07-0.733 0.72-1.2 1.68-1.4 2.88v0l-0.65 3.75c-0.067 0.333-0.1 0.757-0.1 1.27 0 0.52 0.217 1.08 0.65 1.68 0.433 0.6 1.193 0.9 2.28 0.9 1.08 0 1.987-0.377 2.72-1.13 0.733-0.747 1.2-1.653 1.4-2.72zM94.85-24.75v0c3.3 0 5.617 0.917 6.95 2.75v0c1 1.3 1.5 2.883 1.5 4.75v0c0 0.767-0.083 1.567-0.25 2.4v0l-1 5.6c-0.567 3.2-2.04 5.657-4.42 7.37-2.387 1.72-5.387 2.58-9 2.58-3.62 0-6.397-0.717-8.33-2.15v0c-1.533-1.133-2.3-2.717-2.3-4.75v0c0-0.533 0.05-1.083 0.15-1.65v0l5.3-30.1h8.5l-2.55 14.55c1.4-0.9 3.217-1.35 5.45-1.35zM93.75-10.35l0.65-3.75c0.033-0.267 0.05-0.643 0.05-1.13 0-0.48-0.207-0.997-0.62-1.55-0.42-0.547-1.32-0.82-2.7-0.82-1.387 0-2.38 0.417-2.98 1.25v0l-1.45 8.35c0.4 1 1.233 1.5 2.5 1.5v0c2.567 0 4.083-1.283 4.55-3.85zM129.65-7.7v0c0 0.867 0.443 1.3 1.33 1.3 0.88 0 1.62-0.167 2.22-0.5v0l-0.25 5.65c-1.6 1.3-3.4 1.95-5.4 1.95v0c-3.667 0-5.7-1.333-6.1-4v0c-1.667 2.667-4.117 4-7.35 4v0c-5.467 0-8.2-2.35-8.2-7.05v0c0-0.8 0.083-1.683 0.25-2.65v0l1.05-5.85c0.533-3 1.76-5.393 3.68-7.18 1.913-1.78 4.413-2.67 7.5-2.67 3.08 0 5.17 0.717 6.27 2.15v0l0.25-1.5h7.6l-2.8 15.75c-0.033 0.2-0.05 0.4-0.05 0.6zM115.5-13.85l-0.65 3.75c-0.067 0.3-0.1 0.717-0.1 1.25 0 0.533 0.25 1.057 0.75 1.57 0.5 0.52 1.343 0.78 2.53 0.78 1.18 0 2.203-0.467 3.07-1.4v0l1.5-8.4c-0.367-0.833-1.233-1.25-2.6-1.25v0c-2.567 0-4.067 1.233-4.5 3.7zM145.6-7.7v0c0 0.867 0.443 1.3 1.33 1.3 0.88 0 1.62-0.167 2.22-0.5v0l-0.25 5.65c-1.6 1.3-3.4 1.95-5.4 1.95v0c-3.033 0-5-0.7-5.9-2.1v0c-0.567-0.9-0.85-1.883-0.85-2.95 0-1.067 0.067-2 0.2-2.8v0l5.45-30.8h8.5l-5.25 29.65c-0.033 0.2-0.05 0.4-0.05 0.6z" fill="#000000" fill-rule="nonzero" stroke="none" stroke-width="1" stroke-linecap="butt" stroke-linejoin="miter" stroke-miterlimit="10" stroke-dasharray="" stroke-dashoffset="0" font-family="none" font-weight="none" font-size="none" text-anchor="none" style="mix-blend-mode: normal" data-fill-palette-color="primary" opacity="1"></path><path transform="translate(0,84.1)" d="M7.3-36h14.5c3.8 0 6.5 0.833 8.1 2.5v0c1.2 1.267 1.8 2.867 1.8 4.8v0c0 0.667-0.067 1.367-0.2 2.1v0l-0.7 3.9c-0.4 2.167-1.09 3.917-2.07 5.25-0.987 1.333-2.08 2.283-3.28 2.85v0l4.55 14.6h-10.1l-4.2-13.45h-3.1l-2.05 13.45h-9.6zM18.65-28.2v0h-3.75l-1.3 8.7h3.5c1.767 0 3.033-0.427 3.8-1.28 0.767-0.847 1.15-1.97 1.15-3.37v0c0-2.7-1.133-4.05-3.4-4.05zM44 0.7v0c-6.933 0-10.4-2.4-10.4-7.2v0c0-0.667 0.067-1.383 0.2-2.15v0l1.05-6.2c0.567-3.2 2.043-5.66 4.43-7.38 2.38-1.713 5.537-2.57 9.47-2.57v0c6.7 0 10.05 2.533 10.05 7.6v0c0 0.733-0.067 1.533-0.2 2.4v0l-0.6 3.55h-15.25l-0.2 1.15c-0.067 0.4-0.1 0.767-0.1 1.1v0c0 1.833 1.083 2.75 3.25 2.75v0c0.8 0 1.483-0.25 2.05-0.75 0.567-0.5 0.9-1.083 1-1.75v0l8.3 0.1c-1.1 6.233-5.45 9.35-13.05 9.35zM43.25-14.3h6.75c0.133-0.567 0.2-1.093 0.2-1.58 0-0.48-0.217-0.97-0.65-1.47-0.433-0.5-1.123-0.75-2.07-0.75-0.953 0-1.82 0.317-2.6 0.95-0.787 0.633-1.33 1.583-1.63 2.85zM86.5-18.85v0c0 1.1-0.333 2.117-1 3.05v0h-8.2c0.267-0.2 0.4-0.533 0.4-1 0-0.467-0.267-0.843-0.8-1.13-0.533-0.28-1.217-0.42-2.05-0.42v0c-2.5 0-3.75 0.767-3.75 2.3v0c0 0.6 0.467 1.033 1.4 1.3 0.933 0.267 2.067 0.483 3.4 0.65 1.333 0.167 2.667 0.407 4 0.72 1.333 0.32 2.467 0.947 3.4 1.88 0.933 0.933 1.4 2.183 1.4 3.75v0c0 2.767-1.107 4.867-3.32 6.3-2.22 1.433-5.447 2.15-9.68 2.15-4.233 0-7.2-0.683-8.9-2.05v0c-1.333-1.067-2-2.533-2-4.4v0c0-0.533 0.05-1.083 0.15-1.65v0l8.35-0.1c-0.067 0.467 0.21 0.873 0.83 1.22 0.613 0.353 1.52 0.53 2.72 0.53 1.2 0 2.067-0.127 2.6-0.38 0.533-0.247 0.8-0.72 0.8-1.42v0c0-0.467-0.467-0.793-1.4-0.98-0.933-0.18-2.073-0.337-3.42-0.47-1.353-0.133-2.703-0.35-4.05-0.65-1.353-0.3-2.497-0.933-3.43-1.9-0.933-0.967-1.4-2.233-1.4-3.8v0c0-3.033 1.177-5.367 3.53-7 2.347-1.633 5.737-2.45 10.17-2.45v0c6.833 0 10.25 1.983 10.25 5.95zM103.9-24.75v0c3.6 0 6.317 0.783 8.15 2.35v0c1.433 1.233 2.15 2.95 2.15 5.15v0c0 0.733-0.083 1.533-0.25 2.4v0l-1.05 5.85c-0.633 3.533-2.107 6.033-4.42 7.5-2.32 1.467-5.413 2.2-9.28 2.2-3.867 0-6.7-0.733-8.5-2.2v0c-1.333-1.1-2-2.75-2-4.95v0c0-0.767 0.083-1.617 0.25-2.55v0l1.05-5.85c1.167-6.6 5.8-9.9 13.9-9.9zM104.6-10.1l0.65-3.75c0.067-0.333 0.1-0.76 0.1-1.28 0-0.513-0.217-1.087-0.65-1.72-0.433-0.633-1.19-0.95-2.27-0.95-1.087 0-1.997 0.357-2.73 1.07-0.733 0.72-1.2 1.68-1.4 2.88v0l-0.65 3.75c-0.067 0.333-0.1 0.757-0.1 1.27 0 0.52 0.217 1.08 0.65 1.68 0.433 0.6 1.193 0.9 2.28 0.9 1.08 0 1.987-0.377 2.72-1.13 0.733-0.747 1.2-1.653 1.4-2.72zM141.25-7.7v0c0 0.867 0.443 1.3 1.33 1.3 0.88 0 1.62-0.167 2.22-0.5v0l-0.25 5.65c-1.6 1.3-3.4 1.95-5.4 1.95v0c-3.767 0-5.817-1.45-6.15-4.35v0c-2 2.9-4.69 4.35-8.07 4.35-3.387 0-5.58-0.767-6.58-2.3v0c-0.667-0.967-1-2.067-1-3.3 0-1.233 0.1-2.367 0.3-3.4v0l2.8-15.75h8.5l-2.35 13.3c-0.1 0.6-0.15 1.2-0.15 1.8v0c0 1.6 0.9 2.4 2.7 2.4v0c1.5 0 2.7-0.517 3.6-1.55v0l2.85-15.95h8.5l-2.8 15.75c-0.033 0.2-0.05 0.4-0.05 0.6zM172.15-18.95v0c0 1.133-0.19 2.233-0.57 3.3-0.387 1.067-0.763 1.85-1.13 2.35v0l-0.55 0.7h-7.55c0.833-0.767 1.25-1.717 1.25-2.85v0c0-0.6-0.19-1.093-0.57-1.48-0.387-0.38-0.913-0.57-1.58-0.57v0c-1.133 0-2.117 0.567-2.95 1.7v0l-2.8 15.8h-8.5l4.25-24.05h7.9l-0.6 3.35c1.9-2.7 4.2-4.05 6.9-4.05v0c2.167 0 3.793 0.517 4.88 1.55 1.08 1.033 1.62 2.45 1.62 4.25zM183.7 0.7v0c-6.933 0-10.4-2.4-10.4-7.2v0c0-0.667 0.067-1.383 0.2-2.15v0l1.05-6.2c0.533-3.2 1.993-5.65 4.38-7.35 2.38-1.7 5.403-2.567 9.07-2.6v0c7.1 0 10.65 2.467 10.65 7.4v0c0 1.067-0.123 2.023-0.37 2.87-0.253 0.853-0.513 1.43-0.78 1.73v0l-0.4 0.5h-8.5c0.833-0.733 1.25-1.6 1.25-2.6v0c0-1.8-0.9-2.7-2.7-2.7v0c-1.067 0-1.983 0.317-2.75 0.95-0.767 0.633-1.267 1.6-1.5 2.9v0l-0.65 3.65c-0.067 0.333-0.1 0.65-0.1 0.95v0c0 1.767 1.1 2.65 3.3 2.65v0c0.733 0 1.393-0.233 1.98-0.7 0.58-0.467 0.92-0.983 1.02-1.55v0l8.3 0.1c-1.1 6.233-5.45 9.35-13.05 9.35zM211.2 0.7v0c-6.933 0-10.4-2.4-10.4-7.2v0c0-0.667 0.067-1.383 0.2-2.15v0l1.05-6.2c0.567-3.2 2.04-5.66 4.42-7.38 2.387-1.713 5.547-2.57 9.48-2.57v0c6.7 0 10.05 2.533 10.05 7.6v0c0 0.733-0.067 1.533-0.2 2.4v0l-0.6 3.55h-15.25l-0.2 1.15c-0.067 0.4-0.1 0.767-0.1 1.1v0c0 1.833 1.083 2.75 3.25 2.75v0c0.8 0 1.483-0.25 2.05-0.75 0.567-0.5 0.9-1.083 1-1.75v0l8.3 0.1c-1.1 6.233-5.45 9.35-13.05 9.35zM210.45-14.3h6.75c0.133-0.567 0.2-1.093 0.2-1.58 0-0.48-0.217-0.97-0.65-1.47-0.433-0.5-1.123-0.75-2.07-0.75-0.953 0-1.823 0.317-2.61 0.95-0.78 0.633-1.32 1.583-1.62 2.85zM253.7-18.85v0c0 1.1-0.333 2.117-1 3.05v0h-8.2c0.267-0.2 0.4-0.533 0.4-1 0-0.467-0.267-0.843-0.8-1.13-0.533-0.28-1.217-0.42-2.05-0.42v0c-2.5 0-3.75 0.767-3.75 2.3v0c0 0.6 0.467 1.033 1.4 1.3 0.933 0.267 2.067 0.483 3.4 0.65 1.333 0.167 2.667 0.407 4 0.72 1.333 0.32 2.467 0.947 3.4 1.88 0.933 0.933 1.4 2.183 1.4 3.75v0c0 2.767-1.11 4.867-3.33 6.3-2.213 1.433-5.437 2.15-9.67 2.15-4.233 0-7.2-0.683-8.9-2.05v0c-1.333-1.067-2-2.533-2-4.4v0c0-0.533 0.05-1.083 0.15-1.65v0l8.35-0.1c-0.067 0.467 0.207 0.873 0.82 1.22 0.62 0.353 1.53 0.53 2.73 0.53 1.2 0 2.067-0.127 2.6-0.38 0.533-0.247 0.8-0.72 0.8-1.42v0c0-0.467-0.467-0.793-1.4-0.98-0.933-0.18-2.073-0.337-3.42-0.47-1.353-0.133-2.707-0.35-4.06-0.65-1.347-0.3-2.487-0.933-3.42-1.9-0.933-0.967-1.4-2.233-1.4-3.8v0c0-3.033 1.177-5.367 3.53-7 2.347-1.633 5.737-2.45 10.17-2.45v0c6.833 0 10.25 1.983 10.25 5.95z" fill="#000000" fill-rule="nonzero" stroke="none" stroke-width="1" stroke-linecap="butt" stroke-linejoin="miter" stroke-miterlimit="10" stroke-dasharray="" stroke-dashoffset="0" font-family="none" font-weight="none" font-size="none" text-anchor="none" style="mix-blend-mode: normal" data-fill-palette-color="primary" opacity="1"></path><path transform="translate(0,126.15)" d="M25.15-7.8l-1.4 7.8h-22.8l6.35-36h9l-4.95 28.2zM38.45-6.4v0c0.767 0 1.45-0.167 2.05-0.5v0l-0.25 5.65c-1.567 1.3-3.35 1.95-5.35 1.95v0c-3.033 0-5-0.7-5.9-2.1v0c-0.6-0.933-0.9-1.927-0.9-2.98 0-1.047 0.067-1.97 0.2-2.77v0l3-16.9h8.5l-2.8 15.75c-0.033 0.2-0.05 0.383-0.05 0.55v0c0 0.9 0.5 1.35 1.5 1.35zM32.3-32.2v0c0-2.133 0.477-3.693 1.43-4.68 0.947-0.98 2.42-1.47 4.42-1.47v0c2.8 0 4.2 1.233 4.2 3.7v0c0 2.1-0.477 3.633-1.43 4.6-0.947 0.967-2.437 1.45-4.47 1.45v0c-2.767 0-4.15-1.2-4.15-3.6zM84.95-6.4v0c0.767 0 1.45-0.167 2.05-0.5v0l-0.25 5.65c-1.567 1.3-3.35 1.95-5.35 1.95v0c-4.533 0-6.8-1.9-6.8-5.7v0c0-0.667 0.067-1.383 0.2-2.15v0l1.05-6.15c0.1-0.6 0.15-1.2 0.15-1.8v0c0-1.6-0.873-2.4-2.62-2.4-1.753 0-3.13 0.683-4.13 2.05v0l-2.7 15.45h-8.5l2.35-13.3c0.1-0.6 0.15-1.2 0.15-1.8v0c0-1.6-0.9-2.4-2.7-2.4v0c-1.433 0-2.667 0.55-3.7 1.65v0l-2.8 15.85h-8.5l4.25-24.05h7.9l-0.55 3c2-2.467 4.533-3.7 7.6-3.7v0c4.333 0 6.8 1.433 7.4 4.3v0c2-2.867 4.673-4.3 8.02-4.3 3.353 0 5.53 0.75 6.53 2.25v0c0.667 1.033 1 2.167 1 3.4 0 1.233-0.083 2.35-0.25 3.35v0l-1.25 7.45c-0.033 0.2-0.05 0.383-0.05 0.55v0c0 0.9 0.5 1.35 1.5 1.35zM100.5-6.4v0c0.767 0 1.45-0.167 2.05-0.5v0l-0.25 5.65c-1.567 1.3-3.35 1.95-5.35 1.95v0c-3.033 0-5-0.7-5.9-2.1v0c-0.6-0.933-0.9-1.927-0.9-2.98 0-1.047 0.067-1.97 0.2-2.77v0l3-16.9h8.5l-2.8 15.75c-0.033 0.2-0.05 0.383-0.05 0.55v0c0 0.9 0.5 1.35 1.5 1.35zM94.35-32.2v0c0-2.133 0.477-3.693 1.43-4.68 0.947-0.98 2.42-1.47 4.42-1.47v0c2.8 0 4.2 1.233 4.2 3.7v0c0 2.1-0.473 3.633-1.42 4.6-0.953 0.967-2.447 1.45-4.48 1.45v0c-2.767 0-4.15-1.2-4.15-3.6zM116.3 0.7v0c-3.867 0-6.65-0.867-8.35-2.6v0c-1.267-1.267-1.9-2.967-1.9-5.1v0c0-0.7 0.067-1.45 0.2-2.25v0l3.4-19.35 9.15-3.8-1.45 8.35h13.8l-1.25 7.05h-13.8l-1 5.65c-0.133 0.633-0.2 1.2-0.2 1.7v0c0 2.1 1 3.15 3 3.15v0c1.067 0 1.96-0.45 2.68-1.35 0.713-0.9 1.203-2.1 1.47-3.6v0h8.3c-1.4 8.1-6.083 12.15-14.05 12.15zM143.15 0.7v0c-6.933 0-10.4-2.4-10.4-7.2v0c0-0.667 0.067-1.383 0.2-2.15v0l1.05-6.2c0.567-3.2 2.043-5.66 4.43-7.38 2.38-1.713 5.537-2.57 9.47-2.57v0c6.7 0 10.05 2.533 10.05 7.6v0c0 0.733-0.067 1.533-0.2 2.4v0l-0.6 3.55h-15.25l-0.2 1.15c-0.067 0.4-0.1 0.767-0.1 1.1v0c0 1.833 1.083 2.75 3.25 2.75v0c0.8 0 1.483-0.25 2.05-0.75 0.567-0.5 0.9-1.083 1-1.75v0l8.3 0.1c-1.1 6.233-5.45 9.35-13.05 9.35zM142.4-14.3h6.75c0.133-0.567 0.2-1.093 0.2-1.58 0-0.48-0.217-0.97-0.65-1.47-0.433-0.5-1.123-0.75-2.07-0.75-0.953 0-1.82 0.317-2.6 0.95-0.787 0.633-1.33 1.583-1.63 2.85zM184.1-7.7v0c0 0.867 0.443 1.3 1.33 1.3 0.88 0 1.62-0.167 2.22-0.5v0l-0.25 5.65c-1.6 1.3-3.4 1.95-5.4 1.95v0c-3.667 0-5.7-1.333-6.1-4v0c-1.667 2.667-4.117 4-7.35 4v0c-5.467 0-8.2-2.35-8.2-7.05v0c0-0.8 0.083-1.683 0.25-2.65v0l1.05-5.85c0.533-3 1.76-5.393 3.68-7.18 1.913-1.78 4.57-2.67 7.97-2.67v0c2.1 0 3.767 0.45 5 1.35v0l2.55-14.6h8.55l-5.25 29.65c-0.033 0.2-0.05 0.4-0.05 0.6zM169.95-13.85l-0.65 3.75c-0.067 0.3-0.1 0.717-0.1 1.25 0 0.533 0.25 1.057 0.75 1.57 0.5 0.52 1.343 0.78 2.53 0.78 1.18 0 2.203-0.467 3.07-1.4v0l1.5-8.4c-0.367-0.833-1.233-1.25-2.6-1.25v0c-2.567 0-4.067 1.233-4.5 3.7z" fill="#000000" fill-rule="nonzero" stroke="none" stroke-width="1" stroke-linecap="butt" stroke-linejoin="miter" stroke-miterlimit="10" stroke-dasharray="" stroke-dashoffset="0" font-family="none" font-weight="none" font-size="none" text-anchor="none" style="mix-blend-mode: normal" data-fill-palette-color="primary" opacity="1"></path></g></svg></g></svg></g></svg></g></svg></g><g transform="matrix(1,0,0,1,0,0.6179999999999808)"><svg viewBox="0 0 207.18156396072746 247.2" height="247.2" width="207.18156396072746"><g><svg xmlns="http://www.w3.org/2000/svg" xmlns:xlink="http://www.w3.org/1999/xlink" version="1.1" x="0" y="0" viewBox="9.629 1.018 82.11999999999999 97.982" enable-background="new 0 0 100 100" xml:space="preserve" height="247.2" width="207.18156396072746" class="icon-icon-0" data-fill-palette-color="accent" id="icon-0"><polygon points="33.168,3.568 21.643,3.568 21.643,18.314 33.168,10.573 " fill="#000000" data-fill-palette-color="accent"></polygon><polygon points="50.688,1.018 9.629,28.603 91.749,28.603 " fill="#000000" data-fill-palette-color="accent"></polygon><rect x="43.266" y="98.876" fill="#000000" width="14.844" height="0.124" data-fill-palette-color="accent"></rect><path d="M54.789 82.022c-0.847 0-1.533 0.686-1.533 1.531 0 0.843 0.687 1.527 1.533 1.527 0.85 0 1.536-0.685 1.536-1.527C56.325 82.708 55.639 82.022 54.789 82.022z" fill="#000000" data-fill-palette-color="accent"></path><path d="M9.74 30.466v68.41h33.526V67.123H58.11v31.753h33.527v-68.41H9.74zM72.574 40.029h7.052v7.417h-7.052V40.029zM72.574 49.286h7.052v7.417h-7.052V49.286zM74.294 74.539h-4.848V69.43h4.848V74.539zM63.681 40.029h7.053v7.417h-7.053V40.029zM19.674 56.776l-4.911 3.113V36.84l4.911 3.116V56.776zM28.804 56.703h-7.053v-7.417h7.053V56.703zM28.804 47.445h-7.053v-7.417h7.053V47.445zM37.696 56.703h-7.053v-7.417h7.053V56.703zM37.696 47.445h-7.053v-7.417h7.053V47.445zM44.685 59.89l-4.912-3.113v-16.82l4.912-3.116V59.89zM61.604 56.776l-4.911 3.113V36.84l4.911 3.116V56.776zM63.681 49.286h7.053v7.417h-7.053V49.286zM67.942 81.544l-3.554 2.252V67.123l3.554 2.253V81.544zM69.446 76.38h4.848v5.11h-4.848V76.38zM80.98 81.49h-4.849v-5.11h4.849V81.49zM80.98 74.539h-4.849V69.43h4.849V74.539zM86.036 83.796l-3.554-2.252V69.376l3.554-2.253V83.796zM86.615 59.89l-4.913-3.113v-16.82l4.913-3.116V59.89z" fill="#000000" data-fill-palette-color="accent"></path></svg></g></svg></g></svg></g></svg></g><defs></defs></svg><rect width="395.52" height="160.84281033610816" fill="none" stroke="none" visibility="hidden"></rect></g></svg></g></svg>